<svg xmlns="http://www.w3.org/2000/svg" viewBox="0 0 1280 720" width="1280" height="720" version="1.1">
  <defs id="defs2">
    <linearGradient id="gradient1" x1="0%" y1="0%" x2="100%" y2="100%">
      <stop offset="0%" style="stop-color:#6366F1" id="stop1" />
      <stop offset="100%" style="stop-color:#06B6D4" id="stop2" />
    </linearGradient>
  </defs>
  <rect width="1280" height="720" fill="#FAFBFC" />
  <rect x="0" y="0" width="1280" height="4" fill="url(#gradient1)" />
  <text x="60" y="65" font-family="system-ui, -apple-system, sans-serif" font-size="30" font-weight="bold" fill="#1F2937">
    六大核心特性：全面提升内容创作效率
  </text>
  <text x="60" y="100" font-family="system-ui, -apple-system, sans-serif" font-size="15" fill="#6B7280">
    从内容解构到最终输出，覆盖完整工作流程
  </text>
  <line x1="60" y1="120" x2="1220" y2="120" stroke="#E5E7EB" stroke-width="1" />
  <g transform="translate(60, 145)">
    <g>
      <path fill="#FFFFFF" stroke="#E5E7EB" stroke-width="1" d="M16,0 H344 A16,16 0 0 1 360,16 V154 A16,16 0 0 1 344,170 H16 A16,16 0 0 1 0,154 V16 A16,16 0 0 1 16,0 Z" />
      <path fill="#6366F1" d="M16,0 H344 A16,16 0 0 1 360,16 V39 A16,16 0 0 1 344,55 H16 A16,16 0 0 1 0,39 V16 A16,16 0 0 1 16,0 Z" />
      <rect x="0" y="16" width="360" height="39" fill="#6366F1" />
      <text x="25" y="38" font-size="24">🧠</text>
      <text x="60" y="38" font-family="system-ui, -apple-system, sans-serif" font-size="16" font-weight="bold" fill="#FFFFFF">智能内容解构</text>
      <g transform="translate(20, 75)" font-family="system-ui, -apple-system, sans-serif" font-size="13" fill="#6B7280">
        <text x="0" y="0">自动分析源文档结构</text>
        <text x="0" y="22">将内容重组为清晰的页面序列</text>
        <text x="0" y="44">智能提取关键信息和数据</text>
      </g>
      <path fill="#F5F3FF" d="M288,75 H332 A8,8 0 0 1 340,83 V127 A8,8 0 0 1 332,135 H288 A8,8 0 0 1 280,127 V83 A8,8 0 0 1 288,75 Z" />
      <text x="310" y="115" font-family="system-ui, -apple-system, sans-serif" font-size="22" font-weight="bold" text-anchor="middle" fill="#6366F1">AI</text>
    </g>
    <g transform="translate(390, 0)">
      <path fill="#FFFFFF" stroke="#E5E7EB" stroke-width="1" d="M16,0 H344 A16,16 0 0 1 360,16 V154 A16,16 0 0 1 344,170 H16 A16,16 0 0 1 0,154 V16 A16,16 0 0 1 16,0 Z" />
      <path fill="#06B6D4" d="M16,0 H344 A16,16 0 0 1 360,16 V39 A16,16 0 0 1 344,55 H16 A16,16 0 0 1 0,39 V16 A16,16 0 0 1 16,0 Z" />
      <rect x="0" y="16" width="360" height="39" fill="#06B6D4" />
      <text x="25" y="38" font-size="24">🎨</text>
      <text x="60" y="38" font-family="system-ui, -apple-system, sans-serif" font-size="16" font-weight="bold" fill="#FFFFFF">三重设计风格</text>
      <g transform="translate(20, 75)" font-family="system-ui, -apple-system, sans-serif">
        <path fill="#E0F2FE" d="M6,0 H89 A6,6 0 0 1 95,6 V22 A6,6 0 0 1 89,28 H6 A6,6 0 0 1 0,22 V6 A6,6 0 0 1 6,0 Z" />
        <text x="47" y="19" font-size="12" text-anchor="middle" fill="#06B6D4">通用灵活</text>
        <path fill="#E0F2FE" d="M111,0 H194 A6,6 0 0 1 200,6 V22 A6,6 0 0 1 194,28 H111 A6,6 0 0 1 105,22 V6 A6,6 0 0 1 111,0 Z" />
        <text x="152" y="19" font-size="12" text-anchor="middle" fill="#06B6D4">一般咨询</text>
        <path fill="#6366F1" d="M216,0 H299 A6,6 0 0 1 305,6 V22 A6,6 0 0 1 299,28 H216 A6,6 0 0 1 210,22 V6 A6,6 0 0 1 216,0 Z" />
        <text x="257" y="19" font-size="12" text-anchor="middle" fill="#FFFFFF">MBB 级</text>
        <text x="0" y="55" font-size="13" fill="#6B7280">适配不同场景：商务/咨询/战略</text>
      </g>
    </g>
    <g transform="translate(780, 0)">
      <path fill="#FFFFFF" stroke="#E5E7EB" stroke-width="1" d="M16,0 H344 A16,16 0 0 1 360,16 V154 A16,16 0 0 1 344,170 H16 A16,16 0 0 1 0,154 V16 A16,16 0 0 1 16,0 Z" />
      <path fill="#10B981" d="M16,0 H344 A16,16 0 0 1 360,16 V39 A16,16 0 0 1 344,55 H16 A16,16 0 0 1 0,39 V16 A16,16 0 0 1 16,0 Z" />
      <rect x="0" y="16" width="360" height="39" fill="#10B981" />
      <text x="25" y="38" font-size="24">📐</text>
      <text x="60" y="38" font-family="system-ui, -apple-system, sans-serif" font-size="16" font-weight="bold" fill="#FFFFFF">多格式支持</text>
      <g transform="translate(20, 70)" font-family="system-ui, -apple-system, sans-serif">
        <text x="0" y="17" font-size="36px" font-weight="bold" fill="#10b981">10+</text>
        <text x="75" y="5" font-size="14" fill="#1F2937">种画布格式</text>
        <text x="0" y="35" font-size="12" fill="#6B7280">PPT 16:9 · PPT 4:3 · 小红书</text>
        <text x="0" y="55" font-size="12" fill="#6B7280">朋友圈 · Story · Banner · A4</text>
      </g>
    </g>
    <g transform="translate(0, 195)">
      <path fill="#FFFFFF" stroke="#E5E7EB" stroke-width="1" d="M16,0 H344 A16,16 0 0 1 360,16 V154 A16,16 0 0 1 344,170 H16 A16,16 0 0 1 0,154 V16 A16,16 0 0 1 16,0 Z" />
      <path fill="#F59E0B" d="M16,0 H344 A16,16 0 0 1 360,16 V39 A16,16 0 0 1 344,55 H16 A16,16 0 0 1 0,39 V16 A16,16 0 0 1 16,0 Z" />
      <rect x="0" y="16" width="360" height="39" fill="#F59E0B" />
      <text x="25" y="38" font-size="24">📊</text>
      <text x="60" y="38" font-family="system-ui, -apple-system, sans-serif" font-size="16" font-weight="bold" fill="#FFFFFF">数据可视化</text>
      <g transform="translate(20, 70)" font-family="system-ui, -apple-system, sans-serif">
        <text x="-2" y="15" font-size="36px" font-weight="bold" fill="#f59e0b">13</text>
        <text x="40" y="5" font-size="14" fill="#1F2937">种图表模板</text>
        <text x="0" y="35" font-size="12" fill="#6B7280">KPI 卡片 · 柱状图 · 折线图</text>
        <text x="0" y="55" font-size="12" fill="#6B7280">饼图 · 矩阵图 · 时间轴</text>
      </g>
    </g>
    <g transform="translate(390, 195)">
      <path fill="#FFFFFF" stroke="#E5E7EB" stroke-width="1" d="M16,0 H344 A16,16 0 0 1 360,16 V154 A16,16 0 0 1 344,170 H16 A16,16 0 0 1 0,154 V16 A16,16 0 0 1 16,0 Z" />
      <path fill="#EF4444" d="M16,0 H344 A16,16 0 0 1 360,16 V39 A16,16 0 0 1 344,55 H16 A16,16 0 0 1 0,39 V16 A16,16 0 0 1 16,0 Z" />
      <rect x="0" y="16" width="360" height="39" fill="#EF4444" />
      <text x="25" y="38" font-size="24">🎯</text>
      <text x="60" y="38" font-family="system-ui, -apple-system, sans-serif" font-size="16" font-weight="bold" fill="#FFFFFF">CRAP 设计原则</text>
      <g transform="translate(20, 70)" font-family="system-ui, -apple-system, sans-serif" font-size="12">
        <path fill="#FEE2E2" d="M6,0 H64 A6,6 0 0 1 70,6 V20 A6,6 0 0 1 64,26 H6 A6,6 0 0 1 0,20 V6 A6,6 0 0 1 6,0 Z" />
        <text x="35" y="17" text-anchor="middle" fill="#EF4444" font-weight="bold">C 对比</text>
        <path fill="#FEE2E2" d="M86,0 H144 A6,6 0 0 1 150,6 V20 A6,6 0 0 1 144,26 H86 A6,6 0 0 1 80,20 V6 A6,6 0 0 1 86,0 Z" />
        <text x="115" y="17" text-anchor="middle" fill="#EF4444" font-weight="bold">R 重复</text>
        <path fill="#FEE2E2" d="M166,0 H224 A6,6 0 0 1 230,6 V20 A6,6 0 0 1 224,26 H166 A6,6 0 0 1 160,20 V6 A6,6 0 0 1 166,0 Z" />
        <text x="195" y="17" text-anchor="middle" fill="#EF4444" font-weight="bold">A 对齐</text>
        <path fill="#FEE2E2" d="M246,0 H314 A6,6 0 0 1 320,6 V20 A6,6 0 0 1 314,26 H246 A6,6 0 0 1 240,20 V6 A6,6 0 0 1 246,0 Z" />
        <text x="280" y="17" text-anchor="middle" fill="#EF4444" font-weight="bold">P 亲密性</text>
        <text x="0" y="50" font-size="13" fill="#6B7280">专业设计原则，提升视觉质量</text>
      </g>
    </g>
    <g transform="translate(780, 195)">
      <path fill="#FFFFFF" stroke="#E5E7EB" stroke-width="1" d="M16,0 H344 A16,16 0 0 1 360,16 V154 A16,16 0 0 1 344,170 H16 A16,16 0 0 1 0,154 V16 A16,16 0 0 1 16,0 Z" />
      <path fill="#8B5CF6" d="M16,0 H344 A16,16 0 0 1 360,16 V39 A16,16 0 0 1 344,55 H16 A16,16 0 0 1 0,39 V16 A16,16 0 0 1 16,0 Z" />
      <rect x="0" y="16" width="360" height="39" fill="#8B5CF6" />
      <text x="25" y="38" font-size="24">🖼️</text>
      <text x="60" y="38" font-family="system-ui, -apple-system, sans-serif" font-size="16" font-weight="bold" fill="#FFFFFF">纯 SVG 输出</text>
      <g transform="translate(20, 70)" font-family="system-ui, -apple-system, sans-serif" font-size="13" fill="#6B7280">
        <text x="0" y="0">✓ 无限缩放不失真</text>
        <text x="160" y="0">✓ 文件体积小</text>
        <text x="0" y="25">✓ 易于编辑修改</text>
        <text x="160" y="25">✓ 浏览器原生支持</text>
        <text x="0" y="50">✓ 无需第三方依赖</text>
      </g>
    </g>
  </g>
  <path fill="url(#gradient1)" d="M72,545 H1208 A12,12 0 0 1 1220,557 V583 A12,12 0 0 1 1208,595 H72 A12,12 0 0 1 60,583 V557 A12,12 0 0 1 72,545 Z" />
  <text x="640" y="578" font-family="system-ui, -apple-system, sans-serif" font-size="17" font-weight="bold" text-anchor="middle" fill="#FFFFFF">
    🚀 完整的工具链 + 专业的设计体系 = 高效的内容创作
  </text>
  <line x1="60" y1="660" x2="1220" y2="660" stroke="#E5E7EB" stroke-width="1" />
  <text x="60" y="690" font-family="system-ui, -apple-system, sans-serif" font-size="12" fill="#9CA3AF">SlideMax - 核心特性</text>
  <text x="640" y="690" font-family="system-ui, -apple-system, sans-serif" font-size="12" text-anchor="middle" fill="#9CA3AF">06 / 10</text>
  <text x="1220" y="690" font-family="system-ui, -apple-system, sans-serif" font-size="12" text-anchor="end" fill="#9CA3AF">github.com/funenc-lab/slidemax</text>
</svg>