<svg xmlns="http://www.w3.org/2000/svg" viewBox="0 0 1280 720" width="1280" height="720" version="1.1">
  <defs id="defs2">
    <linearGradient id="gradient1" x1="0%" y1="0%" x2="100%" y2="100%">
      <stop offset="0%" style="stop-color:#6366F1" id="stop1" />
      <stop offset="100%" style="stop-color:#06B6D4" id="stop2" />
    </linearGradient>
  </defs>
  <rect width="1280" height="720" fill="#FAFBFC" />
  <rect x="0" y="0" width="1280" height="4" fill="url(#gradient1)" />
  <text x="60" y="65" font-family="system-ui, -apple-system, sans-serif" font-size="30" font-weight="bold" fill="#1F2937">
    工具生态：完善的工具链支持
  </text>
  <text x="60" y="100" font-family="system-ui, -apple-system, sans-serif" font-size="15" fill="#6B7280">
    从项目初始化到质量检查，覆盖完整开发流程
  </text>
  <line x1="60" y1="120" x2="1220" y2="120" stroke="#E5E7EB" stroke-width="1" />
  <g transform="translate(60, 145)">
    <path fill="#FFFFFF" stroke="#6366F1" stroke-width="2" d="M16,0 H539 A16,16 0 0 1 555,16 V174 A16,16 0 0 1 539,190 H16 A16,16 0 0 1 0,174 V16 A16,16 0 0 1 16,0 Z" />
    <text x="20" y="35" font-family="system-ui, -apple-system, sans-serif" font-size="18" font-weight="bold" fill="#6366F1">🛠️ 项目管理工具</text>
    <line x1="20" y1="50" x2="535" y2="50" stroke="#E5E7EB" stroke-width="1" />
    <g transform="translate(20, 70)">
      <g>
        <path fill="#FAFBFC" stroke="#E5E7EB" stroke-width="1" d="M8,0 H237 A8,8 0 0 1 245,8 V42 A8,8 0 0 1 237,50 H8 A8,8 0 0 1 0,42 V8 A8,8 0 0 1 8,0 Z" />
        <text x="15" y="22" font-family="monospace" font-size="11" fill="#6366F1">project_manager</text>
        <text x="15" y="38" font-family="system-ui, -apple-system, sans-serif" font-size="10" fill="#6B7280">项目初始化 · 验证 · 信息查看</text>
      </g>
      <g transform="translate(265, 0)">
        <path fill="#FAFBFC" stroke="#E5E7EB" stroke-width="1" d="M8,0 H237 A8,8 0 0 1 245,8 V42 A8,8 0 0 1 237,50 H8 A8,8 0 0 1 0,42 V8 A8,8 0 0 1 8,0 Z" />
        <text x="15" y="22" font-family="monospace" font-size="11" fill="#6366F1">svg_quality_checker</text>
        <text x="15" y="38" font-family="system-ui, -apple-system, sans-serif" font-size="10" fill="#6B7280">SVG 质量检查 · 规范验证</text>
      </g>
      <g transform="translate(0, 60)">
        <path fill="#FAFBFC" stroke="#E5E7EB" stroke-width="1" d="M8,0 H237 A8,8 0 0 1 245,8 V42 A8,8 0 0 1 237,50 H8 A8,8 0 0 1 0,42 V8 A8,8 0 0 1 8,0 Z" />
        <text x="15" y="22" font-family="monospace" font-size="11" fill="#6366F1">finalize_svg</text>
        <text x="15" y="38" font-family="system-ui, -apple-system, sans-serif" font-size="10" fill="#6B7280">最终化处理 · 图标嵌入</text>
      </g>
      <g transform="translate(265, 60)">
        <path fill="#FAFBFC" stroke="#E5E7EB" stroke-width="1" d="M8,0 H237 A8,8 0 0 1 245,8 V42 A8,8 0 0 1 237,50 H8 A8,8 0 0 1 0,42 V8 A8,8 0 0 1 8,0 Z" />
        <text x="15" y="22" font-family="monospace" font-size="11" fill="#6366F1">batch_validate</text>
        <text x="15" y="38" font-family="system-ui, -apple-system, sans-serif" font-size="10" fill="#6B7280">批量验证多个项目</text>
      </g>
    </g>
  </g>
  <g transform="translate(640, 145)">
    <path fill="#FFFFFF" stroke="#06B6D4" stroke-width="2" d="M16,0 H539 A16,16 0 0 1 555,16 V174 A16,16 0 0 1 539,190 H16 A16,16 0 0 1 0,174 V16 A16,16 0 0 1 16,0 Z" />
    <text x="20" y="35" font-family="system-ui, -apple-system, sans-serif" font-size="18" font-weight="bold" fill="#06B6D4">📦 资源库</text>
    <line x1="20" y1="50" x2="535" y2="50" stroke="#E5E7EB" stroke-width="1" />
    <g transform="translate(20, 65)">
      <g>
        <path fill="#FAFBFC" stroke="#E5E7EB" stroke-width="1" d="M12,0 H233 A12,12 0 0 1 245,12 V93 A12,12 0 0 1 233,105 H12 A12,12 0 0 1 0,93 V12 A12,12 0 0 1 12,0 Z" />
        <text x="122" y="35" font-size="28" text-anchor="middle">🎨</text>
        <text x="122" y="58" font-family="system-ui, -apple-system, sans-serif" font-size="13" font-weight="bold" text-anchor="middle" fill="#1F2937">矢量图标库</text>
        <text x="122" y="84" font-family="system-ui, '-apple-system', sans-serif" font-size="28px" font-weight="bold" text-anchor="middle" fill="#06b6d4">640+</text>
        <text x="122" y="98" font-family="system-ui, -apple-system, sans-serif" font-size="10" text-anchor="middle" fill="#9CA3AF">来自 SVG Repo</text>
      </g>
      <g transform="translate(265, 0)">
        <path fill="#FAFBFC" stroke="#E5E7EB" stroke-width="1" d="M12,0 H233 A12,12 0 0 1 245,12 V93 A12,12 0 0 1 233,105 H12 A12,12 0 0 1 0,93 V12 A12,12 0 0 1 12,0 Z" />
        <text x="122" y="35" font-size="28" text-anchor="middle">📊</text>
        <text x="122" y="58" font-family="system-ui, -apple-system, sans-serif" font-size="13" font-weight="bold" text-anchor="middle" fill="#1F2937">图表模板</text>
        <text x="122" y="84" font-family="system-ui, '-apple-system', sans-serif" font-size="28px" font-weight="bold" text-anchor="middle" fill="#06b6d4">13</text>
        <text x="122" y="98" font-family="system-ui, -apple-system, sans-serif" font-size="10" text-anchor="middle" fill="#9CA3AF">种常用图表类型</text>
      </g>
    </g>
  </g>
  <g transform="translate(60, 360)">
    <path fill="#FFFFFF" stroke="#10B981" stroke-width="2" d="M16,0 H1144 A16,16 0 0 1 1160,16 V159 A16,16 0 0 1 1144,175 H16 A16,16 0 0 1 0,159 V16 A16,16 0 0 1 16,0 Z" />
    <text x="20" y="35" font-family="system-ui, -apple-system, sans-serif" font-size="18" font-weight="bold" fill="#10B981">📚 文档中心</text>
    <line x1="20" y1="50" x2="1140" y2="50" stroke="#E5E7EB" stroke-width="1" />
    <g transform="translate(20, 70)" font-family="system-ui, -apple-system, sans-serif">
      <g>
        <path fill="#FAFBFC" stroke="#E5E7EB" stroke-width="1" d="M8,0 H167 A8,8 0 0 1 175,8 V72 A8,8 0 0 1 167,80 H8 A8,8 0 0 1 0,72 V8 A8,8 0 0 1 8,0 Z" />
        <text x="15" y="28" font-size="18">🎨</text>
        <text x="45" y="28" font-size="12" font-weight="bold" fill="#1F2937">设计指南</text>
        <text x="15" y="48" font-size="10" fill="#6B7280">design_guidelines.md</text>
        <text x="15" y="65" font-size="9" fill="#9CA3AF">颜色/排版/布局规范</text>
      </g>
      <g transform="translate(190, 0)">
        <path fill="#FAFBFC" stroke="#E5E7EB" stroke-width="1" d="M8,0 H167 A8,8 0 0 1 175,8 V72 A8,8 0 0 1 167,80 H8 A8,8 0 0 1 0,72 V8 A8,8 0 0 1 8,0 Z" />
        <text x="15" y="28" font-size="18">📐</text>
        <text x="45" y="28" font-size="12" font-weight="bold" fill="#1F2937">画布格式</text>
        <text x="15" y="48" font-size="10" fill="#6B7280">canvas_formats.md</text>
        <text x="15" y="65" font-size="9" fill="#9CA3AF">10+ 种格式规范</text>
      </g>
      <g transform="translate(380, 0)">
        <path fill="#FAFBFC" stroke="#E5E7EB" stroke-width="1" d="M8,0 H167 A8,8 0 0 1 175,8 V72 A8,8 0 0 1 167,80 H8 A8,8 0 0 1 0,72 V8 A8,8 0 0 1 8,0 Z" />
        <text x="15" y="28" font-size="18">📖</text>
        <text x="45" y="28" font-size="12" font-weight="bold" fill="#1F2937">工作流教程</text>
        <text x="15" y="48" font-size="10" fill="#6B7280">workflow_tutorial.md</text>
        <text x="15" y="65" font-size="9" fill="#9CA3AF">实际案例演示</text>
      </g>
      <g transform="translate(570, 0)">
        <path fill="#FAFBFC" stroke="#E5E7EB" stroke-width="1" d="M8,0 H167 A8,8 0 0 1 175,8 V72 A8,8 0 0 1 167,80 H8 A8,8 0 0 1 0,72 V8 A8,8 0 0 1 8,0 Z" />
        <text x="15" y="28" font-size="18">⚡</text>
        <text x="45" y="28" font-size="12" font-weight="bold" fill="#1F2937">快速参考</text>
        <text x="15" y="48" font-size="10" fill="#6B7280">quick_reference.md</text>
        <text x="15" y="65" font-size="9" fill="#9CA3AF">速查手册</text>
      </g>
      <g transform="translate(760, 0)">
        <path fill="#FAFBFC" stroke="#E5E7EB" stroke-width="1" d="M8,0 H167 A8,8 0 0 1 175,8 V72 A8,8 0 0 1 167,80 H8 A8,8 0 0 1 0,72 V8 A8,8 0 0 1 8,0 Z" />
        <text x="15" y="28" font-size="18">🖼️</text>
        <text x="45" y="28" font-size="12" font-weight="bold" fill="#1F2937">图片嵌入</text>
        <text x="15" y="48" font-size="10" fill="#6B7280">svg_image_embedding.md</text>
        <text x="15" y="65" font-size="9" fill="#9CA3AF">图片处理指南</text>
      </g>
      <g transform="translate(950, 0)">
        <path fill="#FAFBFC" stroke="#E5E7EB" stroke-width="1" d="M8,0 H167 A8,8 0 0 1 175,8 V72 A8,8 0 0 1 167,80 H8 A8,8 0 0 1 0,72 V8 A8,8 0 0 1 8,0 Z" />
        <text x="15" y="28" font-size="18">🔧</text>
        <text x="45" y="28" font-size="12" font-weight="bold" fill="#1F2937">角色定义</text>
        <text x="15" y="48" font-size="10" fill="#6B7280">roles/</text>
        <text x="15" y="65" font-size="9" fill="#9CA3AF">5 个角色文件</text>
      </g>
    </g>
  </g>
  <path fill="url(#gradient1)" d="M72,560 H1208 A12,12 0 0 1 1220,572 V598 A12,12 0 0 1 1208,610 H72 A12,12 0 0 1 60,598 V572 A12,12 0 0 1 72,560 Z" />
  <text x="640" y="593" font-family="system-ui, -apple-system, sans-serif" font-size="17" font-weight="bold" text-anchor="middle" fill="#FFFFFF">
    🎯 开箱即用 · 文档完善 · 持续更新
  </text>
  <line x1="60" y1="660" x2="1220" y2="660" stroke="#E5E7EB" stroke-width="1" />
  <text x="60" y="690" font-family="system-ui, -apple-system, sans-serif" font-size="12" fill="#9CA3AF">SlideMax - 工具生态</text>
  <text x="640" y="690" font-family="system-ui, -apple-system, sans-serif" font-size="12" text-anchor="middle" fill="#9CA3AF">08 / 10</text>
  <text x="1220" y="690" font-family="system-ui, -apple-system, sans-serif" font-size="12" text-anchor="end" fill="#9CA3AF">github.com/funenc-lab/slidemax</text>
</svg>