<svg xmlns="http://www.w3.org/2000/svg" viewBox="0 0 1280 720" width="1280" height="720">
  <defs>
    <linearGradient id="gradient1" x1="0%" y1="0%" x2="100%" y2="100%">
      <stop offset="0%" style="stop-color:#6366F1" />
      <stop offset="100%" style="stop-color:#06B6D4" />
    </linearGradient>
  </defs>
  
  
  <rect width="1280" height="720" fill="#FAFBFC" />
  <rect x="0" y="0" width="1280" height="4" fill="url(#gradient1)" />
  
  
  <text x="60" y="65" font-family="system-ui, -apple-system, sans-serif" font-size="30" font-weight="bold" fill="#1F2937">
    系统架构：角色协作与交付闸门
  </text>
  <text x="60" y="100" font-family="system-ui, -apple-system, sans-serif" font-size="15" fill="#6B7280">
    清晰的职责划分，确保最终交付物可验证
  </text>
  
  <line x1="60" y1="120" x2="1220" y2="120" stroke="#E5E7EB" stroke-width="1" />
  
  
  <g transform="translate(60, 160)">
    
    <g>
      <path fill="#FFFFFF" stroke="#E5E7EB" stroke-width="2" d="M12,0 H128 A12,12 0 0 1 140,12 V78 A12,12 0 0 1 128,90 H12 A12,12 0 0 1 0,78 V12 A12,12 0 0 1 12,0 Z" />
      <text x="70" y="40" font-size="28" text-anchor="middle">📄</text>
      <text x="70" y="65" font-family="system-ui, -apple-system, sans-serif" font-size="13" font-weight="bold" text-anchor="middle" fill="#1F2937">用户文档</text>
      <text x="70" y="82" font-family="system-ui, -apple-system, sans-serif" font-size="11" text-anchor="middle" fill="#9CA3AF">内容输入</text>
    </g>
    
    
    <g transform="translate(150, 35)">
      <line x1="0" y1="10" x2="40" y2="10" stroke="#6366F1" stroke-width="2" />
      <polygon points="40,3 55,10 40,17" fill="#6366F1" />
    </g>
    
    
    <g transform="translate(215, 0)">
      <path fill="#6366F1" d="M12,0 H168 A12,12 0 0 1 180,12 V78 A12,12 0 0 1 168,90 H12 A12,12 0 0 1 0,78 V12 A12,12 0 0 1 12,0 Z" />
      <text x="90" y="35" font-size="22" text-anchor="middle">🎯</text>
      <text x="90" y="58" font-family="system-ui, -apple-system, sans-serif" font-size="14" font-weight="bold" text-anchor="middle" fill="#FFFFFF">Strategist</text>
      <text x="90" y="78" font-family="system-ui, -apple-system, sans-serif" font-size="11" text-anchor="middle" fill="#FFFFFF" opacity="0.8">策略规划</text>
    </g>
    
    
    <g transform="translate(405, 35)">
      <line x1="0" y1="10" x2="40" y2="10" stroke="#6366F1" stroke-width="2" />
      <polygon points="40,3 55,10 40,17" fill="#6366F1" />
    </g>
    
    
    <g transform="translate(470, 0)">
      <path fill="#06B6D4" d="M12,0 H168 A12,12 0 0 1 180,12 V78 A12,12 0 0 1 168,90 H12 A12,12 0 0 1 0,78 V12 A12,12 0 0 1 12,0 Z" />
      <text x="90" y="35" font-size="22" text-anchor="middle">🖼️</text>
      <text x="90" y="58" font-family="system-ui, -apple-system, sans-serif" font-size="14" font-weight="bold" text-anchor="middle" fill="#FFFFFF">Image_Generator</text>
      <text x="90" y="78" font-family="system-ui, -apple-system, sans-serif" font-size="11" text-anchor="middle" fill="#FFFFFF" opacity="0.8">资产准备</text>
    </g>
    
    
    <g transform="translate(660, 35)">
      <line x1="0" y1="10" x2="40" y2="10" stroke="#6366F1" stroke-width="2" />
      <polygon points="40,3 55,10 40,17" fill="#6366F1" />
    </g>
    
    
    <g transform="translate(725, 0)">
      <path fill="#10B981" d="M12,0 H168 A12,12 0 0 1 180,12 V78 A12,12 0 0 1 168,90 H12 A12,12 0 0 1 0,78 V12 A12,12 0 0 1 12,0 Z" />
      <text x="90" y="35" font-size="22" text-anchor="middle">⚙️</text>
      <text x="90" y="58" font-family="system-ui, -apple-system, sans-serif" font-size="14" font-weight="bold" text-anchor="middle" fill="#FFFFFF">Executor</text>
      <text x="90" y="78" font-family="system-ui, -apple-system, sans-serif" font-size="11" text-anchor="middle" fill="#FFFFFF" opacity="0.8">SVG 生成</text>
    </g>
    
    
    <g transform="translate(915, 35)">
      <line x1="0" y1="10" x2="40" y2="10" stroke="#6366F1" stroke-width="2" />
      <polygon points="40,3 55,10 40,17" fill="#6366F1" />
    </g>
    
    
    <g transform="translate(970, 0)">
      <path fill="#FFFFFF" stroke="#10B981" stroke-width="3" d="M12,0 H128 A12,12 0 0 1 140,12 V78 A12,12 0 0 1 128,90 H12 A12,12 0 0 1 0,78 V12 A12,12 0 0 1 12,0 Z" />
      <text x="70" y="40" font-size="28" text-anchor="middle">✅</text>
      <text x="70" y="65" font-family="system-ui, -apple-system, sans-serif" font-size="13" font-weight="bold" text-anchor="middle" fill="#10B981">Validate</text>
      <text x="70" y="82" font-family="system-ui, -apple-system, sans-serif" font-size="11" text-anchor="middle" fill="#9CA3AF">交付闸门</text>
    </g>
  </g>
  
  
  <g transform="translate(60, 290)">
    
    <g>
      <path fill="#FFFFFF" stroke="#6366F1" stroke-width="2" d="M12,0 H348 A12,12 0 0 1 360,12 V148 A12,12 0 0 1 348,160 H12 A12,12 0 0 1 0,148 V12 A12,12 0 0 1 12,0 Z" />
      <path fill="#6366F1" d="M12,0 H348 A12,12 0 0 1 360,12 V33 A12,12 0 0 1 348,45 H12 A12,12 0 0 1 0,33 V12 A12,12 0 0 1 12,0 Z" />
      <rect x="0" y="12" width="360" height="33" fill="#6366F1" />
      <text x="20" y="30" font-family="system-ui, -apple-system, sans-serif" font-size="16" font-weight="bold" fill="#FFFFFF">🎯 Strategist 策略师</text>
      
      <g transform="translate(20, 60)" font-family="system-ui, -apple-system, sans-serif" font-size="13" fill="#6B7280">
        <text x="0" y="0">• 七项确认：画布/页数/风格/配色</text>
        <text x="0" y="22">• 智能内容解构与重组</text>
        <text x="0" y="44">• 生成《设计规范与内容大纲》</text>
        <text x="0" y="72" font-size="11" fill="#9CA3AF">输出：design_specification.md</text>
      </g>
    </g>
    
    
    <g transform="translate(400, 0)">
      <path fill="#FFFFFF" stroke="#06B6D4" stroke-width="2" d="M12,0 H348 A12,12 0 0 1 360,12 V148 A12,12 0 0 1 348,160 H12 A12,12 0 0 1 0,148 V12 A12,12 0 0 1 12,0 Z" />
      <path fill="#06B6D4" d="M12,0 H348 A12,12 0 0 1 360,12 V33 A12,12 0 0 1 348,45 H12 A12,12 0 0 1 0,33 V12 A12,12 0 0 1 12,0 Z" />
      <rect x="0" y="12" width="360" height="33" fill="#06B6D4" />
      <text x="20" y="30" font-family="system-ui, -apple-system, sans-serif" font-size="16" font-weight="bold" fill="#FFFFFF">🖼️ Image_Generator 图片师</text>
      
      <g transform="translate(20, 60)" font-family="system-ui, -apple-system, sans-serif" font-size="13" fill="#6B7280">
        <text x="0" y="0">• 按需补齐图片与封面资产</text>
        <text x="0" y="22">• 统一比例、来源与版权说明</text>
        <text x="0" y="44">• 生成 image_prompts.md 与 images/*</text>
        <text x="0" y="72" font-size="11" fill="#9CA3AF">输出：image_prompts.md</text>
      </g>
    </g>
    
    
    <g transform="translate(800, 0)">
      <path fill="#FFFFFF" stroke="#10B981" stroke-width="2" d="M12,0 H348 A12,12 0 0 1 360,12 V148 A12,12 0 0 1 348,160 H12 A12,12 0 0 1 0,148 V12 A12,12 0 0 1 12,0 Z" />
      <path fill="#10B981" d="M12,0 H348 A12,12 0 0 1 360,12 V33 A12,12 0 0 1 348,45 H12 A12,12 0 0 1 0,33 V12 A12,12 0 0 1 12,0 Z" />
      <rect x="0" y="12" width="360" height="33" fill="#10B981" />
      <text x="20" y="30" font-family="system-ui, -apple-system, sans-serif" font-size="16" font-weight="bold" fill="#FFFFFF">⚙️ Executor 执行师</text>
      
      <g transform="translate(20, 60)" font-family="system-ui, -apple-system, sans-serif" font-size="13" fill="#6B7280">
        <text x="0" y="0">• 三种风格：通用 / 咨询 / MBB 级</text>
        <text x="0" y="22">• 严格遵循设计规范执行</text>
        <text x="0" y="44">• 逐页生成高质量 SVG 代码</text>
        <text x="0" y="72" font-size="11" fill="#9CA3AF">输出：slide_*.svg</text>
      </g>
    </g>
  </g>
  
  
  <path fill="#FFFFFF" stroke="#E5E7EB" stroke-width="1" d="M72,480 H1208 A12,12 0 0 1 1220,492 V518 A12,12 0 0 1 1208,530 H72 A12,12 0 0 1 60,518 V492 A12,12 0 0 1 72,480 Z" />
  <text x="640" y="512" font-family="system-ui, -apple-system, sans-serif" font-size="15" text-anchor="middle" fill="#6B7280">
    📌 策略规划 + 资产准备 + SVG 执行 + validate = 高质量输出保障
  </text>
  
  
  <line x1="60" y1="660" x2="1220" y2="660" stroke="#E5E7EB" stroke-width="1" />
  <text x="60" y="690" font-family="system-ui, -apple-system, sans-serif" font-size="12" fill="#9CA3AF">SlideMax - 系统架构</text>
  <text x="640" y="690" font-family="system-ui, -apple-system, sans-serif" font-size="12" text-anchor="middle" fill="#9CA3AF">04 / 10</text>
  <text x="1220" y="690" font-family="system-ui, -apple-system, sans-serif" font-size="12" text-anchor="end" fill="#9CA3AF">github.com/funenc-lab/slidemax</text>
</svg>